<svg width="320" height="320" viewBox="0 0 320 320" fill="none" xmlns="http://www.w3.org/2000/svg">
  <rect width="320" height="320" rx="48" fill="#FFF7E2"/>
  <circle cx="160" cy="160" r="116" fill="#4FB8FF" stroke="#102A54" stroke-width="10"/>
  <path d="M94 122C82 86 103 65 126 97" fill="#7BE0C3" stroke="#102A54" stroke-width="10" stroke-linecap="round" stroke-linejoin="round"/>
  <path d="M226 122C238 86 217 65 194 97" fill="#7BE0C3" stroke="#102A54" stroke-width="10" stroke-linecap="round" stroke-linejoin="round"/>
  <ellipse cx="160" cy="171" rx="77" ry="70" fill="#FFFEF8" stroke="#102A54" stroke-width="9"/>
  <circle cx="132" cy="158" r="11" fill="#102A54"/>
  <circle cx="188" cy="158" r="11" fill="#102A54"/>
  <path d="M148 188C154 195 166 195 172 188" stroke="#102A54" stroke-width="8" stroke-linecap="round"/>
  <circle cx="110" cy="188" r="12" fill="#FFB199"/>
  <circle cx="210" cy="188" r="12" fill="#FFB199"/>
  <path d="M160 72L170 94L194 98L176 115L180 139L160 127L140 139L144 115L126 98L150 94L160 72Z" fill="#FFD95A" stroke="#102A54" stroke-width="7" stroke-linejoin="round"/>
</svg>
